<svg version="1.1" id="Layer_1" xmlns="http://www.w3.org/2000/svg" xmlns:xlink="http://www.w3.org/1999/xlink" x="0px" y="0px" width="146px" height="43px" viewBox="-0.477 -0.358 103 31" enable-background="new -0.477 -0.358 103 31" xml:space="preserve"><g><polygon points="28.088,16.087 34.035,16.087 34.035,13.565 28.088,13.565 28.088,11.6 34.498,11.6 34.498,8.959 24.26,8.959    24.26,21.325 34.684,21.325 34.684,18.524 28.088,18.524  "></polygon><polygon points="44.404,15.8 39.746,8.959 36.18,8.959 36.18,21.324 39.771,21.324 39.771,14.535 44.404,21.324 48.004,21.324    48.004,8.959 44.404,8.959  "></polygon><polygon points="53.773,8.959 49.953,8.959 49.953,21.324 59.738,21.324 59.738,18.278 53.773,18.278  "></polygon><rect x="61.039" y="8.959" width="3.828" height="12.365"></rect><polygon points="82.307,16.087 88.25,16.087 88.25,13.565 82.307,13.565 82.307,11.6 88.713,11.6 88.713,8.959 79.898,8.959    78.477,8.959 76.02,8.959 73.273,17.856 70.49,8.959 66.494,8.959 71.163,21.324 75.307,21.324 78.477,12.788 78.477,21.325    88.9,21.325 88.9,18.524 82.307,18.524  "></polygon><polygon points="98.445,8.959 98.445,15.8 93.791,8.959 90.221,8.959 90.221,21.324 93.814,21.324 93.814,14.535 98.445,21.324    102.047,21.324 102.047,8.959  "></polygon><rect class="symbol" x="2.256" y="12.243" fill="#2CABE2" width="18.682" height="5.797"></rect><rect class="symbol" fill="#2CABE2" width="30.926" height="5.801"></rect><rect class="symbol" y="24.483" fill="#2CABE2" width="30.926" height="5.8"></rect></g></svg>
