<?xml version="1.0" encoding="utf-8"?>
<!-- Generator: Adobe Illustrator 22.0.0, SVG Export Plug-In . SVG Version: 6.00 Build 0)  -->
<svg version="1.1" baseProfile="tiny" id="Layer_1" xmlns="http://www.w3.org/2000/svg" xmlns:xlink="http://www.w3.org/1999/xlink"
	 x="0px" y="0px" viewBox="0 0 300.4 75.5" xml:space="preserve">
<g id="Layer_x0020_1">
	<g id="_826040264">
		<path fill="#19BEED" d="M167.8,45.8c-2,1.2-3.5,3.3-8,3.9c-4,0.5-8.9-0.7-11.1-3.3c-0.5-0.5-0.8-1-1.2-1.7
			c-0.8-1.2-1.2-2.8-1.5-4.3c-0.5-2.9-0.4-8.3,0.4-11c0.4-1.6,1.1-3,1.9-4c2.8-3.7,8.4-5,12.9-3.5c1.3,0.4,2.8,1.3,3.7,2.2
			c0.4,0.4,0.9,1.1,1.3,1.7c0.4,0.6,0.6,1.1,1,1.8c1.4,2.9,1.6,6.7,1.5,10.2H151c0.1,2.4,0.8,4.6,2.8,5.8c1.9,1.2,4.8,1.4,6.9,0.7
			c0.8-0.2,1.3-0.5,1.9-0.9l1.6-1.2C164.8,42.7,167.5,45.2,167.8,45.8z M139.9,21.7v27.4c0,1.4,0.6,2.4,1.8,3.1
			c0.4,0.2,0.8,0.4,1.3,0.4h28.3c1.6,0,3.1-1.5,3.1-3.1V21.5c0-1.6-1.5-3.1-3.4-3.1h-27.9C141.4,18.4,139.9,20,139.9,21.7z"/>
		<path fill="#2F3C46" d="M115.4,40.9c0-6.1-1-12,6.3-12c0.8,0,1.9,0.3,2.7,0.8l1.7,1.9c0.2,0.5,0.5,1.2,0.5,1.9v9
			C126.4,48.7,115.4,50.1,115.4,40.9z M126.4,26.9c0,0.4,0.1,0.4,0.1,0.7c-0.3-0.2-0.3-0.4-0.6-0.7c-0.2-0.2-0.4-0.4-0.6-0.6
			c-0.6-0.6-0.8-0.8-1.5-1.2c-2.5-1.7-6.7-1.7-9.2-0.3c-3.3,1.9-4.8,5.3-4.8,9.6c0,3.5-0.4,8.7,0.7,11.7c0.4,1.3,0.9,2.2,1.7,3.2
			c2.5,3.1,8.5,4.1,11.7,1.9c1.4-1,2.1-2.3,2.6-2.7c-0.2,1.1-0.1,1.7-0.1,3c0,0.4,0.1,0.4,0.4,0.4h5.3V13h-5.7L126.4,26.9
			L126.4,26.9z"/>
		<path fill="#2F3C46" d="M187.7,41.2c0-4.8-1-12.3,5.4-12.3c2.2,0,4.4,0.6,5.3,2.8c0.2,0.5,0.4,1.2,0.4,1.9v8.6
			c0,5-5.3,5.9-7.9,4.6c-0.8-0.4-1.2-0.6-1.8-1.2C188.2,44.6,187.7,42.9,187.7,41.2z M198.8,27.5h0.2l-0.1,0.2L198.8,27.5z
			 M198.8,27.5c-0.5-0.4-1.8-2.7-5.1-3.5c-3.6-0.9-7.2,0.4-9.3,3.2c-2.4,3.1-2.1,7.1-2.1,11.1c0,3.7-0.2,6.6,1.3,9.5
			c1.3,2.5,3.5,4.2,6.3,4.6c2.7,0.5,4.9,0.2,7-1.4c1.3-1,1.2-1.2,1.8-2c0.2-0.2,0-0.1,0.4-0.2c-0.4,0.8-0.2,2.4-0.2,3.4h5.7V13h-5.7
			L198.8,27.5L198.8,27.5z"/>
		<path fill="#2F3C46" d="M0.3,29.1c0,5.8-0.7,13,2.4,17.6c0.7,1,1.6,2.2,2.5,3c0.4,0.3,0.7,0.5,1.1,0.8c4.3,2.8,10.9,3,15.1,0.1
			c2.7-1.8,4.3-3.5,5.5-6.7c0.2-0.6,0.6-1.8,0.6-2.5h-5.4c-0.6,0-0.3,0.8-1.4,2.4c-2.5,3.8-8.9,4.5-11.7,1.7
			c-1.2-1.2-1.7-1.7-2.4-3.4c-0.3-0.8-0.6-2.2-0.6-3.2V26.5c0-4,2.7-8.1,6.9-8.4c1.1-0.1,2.2-0.1,3.3,0.2c2.7,0.9,4.8,3.2,5.5,6h5.7
			c0-1.8-1.6-5-2.7-6.4c-4.2-5.5-10.9-6.6-17.1-3.9c-0.2,0.1-0.4,0.2-0.5,0.3l-1.7,1.1C1.2,18.8,0.3,23.8,0.3,29.1z"/>
		<path fill="#2F3C46" d="M55.4,40.2c0-3.4-0.5-6.7,1.4-9.1c1.3-1.8,2.7-1.8,4.3-2c1.3-0.2,3.4,0.4,4.5,1.4c0.9,0.9,1.8,2.5,1.8,4.4
			c0,2.4,0.2,6.6-0.4,8.6c-0.7,1.9-2.5,3.7-4.8,3.7s-3.9-0.1-5.4-2.1C55.8,43.9,55.4,42.2,55.4,40.2z M49.9,34.7
			c0,3.7-0.4,8,0.8,11.3c1.1,3.1,4.2,5.7,7.4,6.2C62,53,66.3,52.6,69.3,50c0.5-0.4,0.4-0.1,0.8-0.7c1.1-1.6,1.1-1.1,2.1-3.7
			c1.2-3,1.1-11.7,0-14.8c-1.4-4.2-5.3-7-9.9-7c-3.1,0-5.3,0.1-7.9,1.8C51.6,27.6,49.9,31.1,49.9,34.7z"/>
		<path fill="#FFFFFF" d="M151,33.3c-0.2-3.8,2.2-7.1,6.3-7.2c4.2-0.1,6,3.9,6,7.1L151,33.3z M167.8,45.8c-0.3-0.5-3-3.1-3.5-3.7
			l-1.6,1.2c-0.6,0.4-1.2,0.7-1.9,0.9c-2.1,0.7-5,0.5-6.9-0.7c-1.9-1.2-2.7-3.5-2.8-5.8h17.6c0.1-3.4-0.1-7.3-1.5-10.2
			c-0.4-0.7-0.6-1.2-1-1.8c-0.4-0.6-0.9-1.3-1.3-1.7c-0.9-0.9-2.4-1.8-3.7-2.2c-4.5-1.4-10.1-0.1-12.9,3.5c-0.8,1.1-1.5,2.5-1.9,4
			c-0.7,2.8-0.8,8.1-0.4,11c0.2,1.6,0.7,3.1,1.5,4.3c0.4,0.7,0.8,1.1,1.2,1.7c2.2,2.6,7.1,3.9,11.1,3.3
			C164.3,49.1,165.8,47,167.8,45.8z"/>
		<path fill="#2F3C46" d="M224.5,47.2c-2.1,0-3.8-0.1-5.3-1.8c-2-2.4-1.4-6.9-1.4-10.4c0-1.7,0.7-3.2,1.8-4.4
			c1.1-1.1,3.1-1.7,4.4-1.5c1.3,0.2,3.1,0.2,4.3,1.8c1.9,2.7,1.5,5.7,1.5,9.6c0,0.9-0.1,1.9-0.4,2.7
			C228.8,45.3,226.9,47.2,224.5,47.2z M212.1,36.2c0,6.1-0.4,12.2,6.1,15.4c4.6,2.2,13.3,1.4,16-5.3c1.4-3.4,0.9-7.7,0.9-11.7
			c0-1.5-0.5-3.2-0.9-4.3c-0.7-1.8-2.1-3.4-3.6-4.5c-3.7-2.5-10.7-2.6-14.3,0.2c-0.8,0.7-1.5,1.3-2.2,2.2
			C212.6,30.5,212.1,33.1,212.1,36.2z"/>
		<path fill="#2F3C46" d="M276.4,43.2c0,1.2,0.1,1.6-0.7,2.6c-0.4,0.5-0.9,0.8-1.5,1.1c-1.9,0.9-5,0.8-7,0.4
			c-1.6-0.4-3.9-1.5-5.1-2.4c-0.9-0.7-0.9-0.9-1.4-0.3l-1.3,1.5c-0.5,0.8-1.1,1.4-1.6,2.1c0.7,1,3.4,2.5,4.6,3.1
			c4.9,1.9,12.5,2,16.6-1.2c2.7-2.1,3.2-6.1,2.4-9.4c-0.5-1.7-1.6-3.1-3.2-3.9c-1.9-1-3.4-1.1-5.7-1.3c-1.4-0.1-5.4-0.4-6.3-0.8
			c-0.9-0.4-1.5-0.8-1.5-2.1c0-4.6,7-4.3,10.2-3c1.6,0.7,2,0.9,3.4,1.9c0.4-0.2,0.2-0.1,0.4-0.4l2.6-3.1c0.1-0.2,0.3-0.4,0.4-0.6
			l-2.1-1.3c-4.6-3-14.8-3.4-18.4,0.9c-0.8,0.9-1.6,2.5-1.8,4.1c-0.6,6,1.9,8.1,6.9,8.9l6.7,0.7C274.6,40.9,276.4,41.4,276.4,43.2z"
			/>
		<path fill="#2F3C46" d="M80,24.5c0,4.2-0.3,16.9,0.4,20.4c0.5,2.7,2.1,5.2,4.5,6.6c2.5,1.4,6.5,1.6,9.3-0.1
			c0.7-0.4,0.9-0.7,1.4-1.2l1-1.1c0.1-0.1,0.1-0.1,0.1-0.1c0.2-0.4-0.1,0,0.2-0.2v3.4h5.5V24.1c-6.2,0-5.5-0.4-5.5,1.3v16
			c0,1.5-0.1,1.9-0.5,3.1c-0.3,0.8-0.9,1.4-1.6,1.9c-1.6,1.2-6,1.3-7.7-0.7c-0.2-0.3-0.5-0.7-0.8-1.1c-0.8-1.7-0.6-4.2-0.6-6.6V25.5
			c0-1.8,0.8-1.4-5.3-1.4C80,24.1,80,24.2,80,24.5z"/>
		<path fill="#2F3C46" d="M243.7,24.2c-0.5-0.3-2.2-0.2-2.8-0.2v5.1h2.8v16c0,3.8,2.1,6.9,5.7,6.9h4.1v-5.3c-2.8,0-4.3,0.5-4.3-2.5
			V29.2h4.3c0-6,0.6-5.1-2.1-5.1c-1.9,0-2.1,0.2-2.1-0.2V16h-5.5V24.2z"/>
		<path fill="#2F3C46" d="M34.7,45.4c0,3.7,2.4,6.8,5.8,6.8h4v-5.3c-2.4,0-4.3,0.5-4.3-2.2V13h-5.5V45.4z"/>
		<path fill="#2F3C46" d="M298.6,4.5c-0.5-0.8-1.5-1.8-2.3-2.4c-1.7-1.2-3.5-1.9-5.3-2h-1.7c-3.8,0.3-7.1,2.7-8.4,6
			c-0.4,1.1-0.8,2.8-0.8,4c0,2,1,5,2.3,6.4l1.2,1.2c0.4,0.2,0.3,0.3,0.7,0.6c0.6,0.4,1,0.6,1.6,0.9c3.8,1.9,8.4,1,11.3-1.9
			c1.9-1.9,2.9-4.3,3-6.7V9.3C300.1,7.6,299.6,5.9,298.6,4.5z M290.9,18.4c-3.1,0-4.5-0.4-6.7-2.6c-4.9-4.8-1.7-14.1,6.2-14.1
			c2.4,0,4.2,0.8,5.8,2.4c0.7,0.8,1.3,1.4,1.7,2.4c0.2,0.4,0.4,1,0.5,1.5C299.7,12.9,295.9,18.4,290.9,18.4z"/>
		<path fill="#19BEED" d="M151,33.3l12.3-0.1c0.1-3.2-1.8-7.2-6-7.1C153.2,26.2,150.9,29.5,151,33.3z"/>
		<path fill="#2F3C46" d="M153.3,65.7v-3.2c1.3,0,3.5-0.1,3,1.9c-0.2,0.6-0.5,0.9-1.1,1.1C154.6,65.7,154,65.4,153.3,65.7z
			 M150.9,72.1c0.8,0.2,1.6,0.3,2.4-0.1v-4.5c0.5,0.2,0.8,0.2,1.4,0.2c0.6,1,0.4,0,1.3,2.2c0.4,0.9,0.6,1.8,1.1,2.5
			c1.5,0,1.8,0.2,2.4-0.3c-0.2-0.9-0.8-2.1-1.1-2.8c-0.2-0.5-0.2-0.8-0.6-1.3c-0.2-0.3-0.2-0.3-0.4-0.5l-0.6-0.5
			c0.5-0.1,1.1-0.4,1.4-0.8c1.5-1.9,0.7-5.3-2.7-5.3c-5.6,0-4.5-1.1-4.5,5.4C150.9,68.1,150.9,70.1,150.9,72.1z"/>
		<path fill="#2F3C46" d="M86.2,68.4c0-0.8-0.1-1.6,0.4-2.4c0.2-0.4,0.5-0.6,1-0.7c0.7-0.1,1.9,0.8,1.9,1.4c0,1.4,0.4,3.7-1.8,3.7
			C86.7,70.4,86.2,69.3,86.2,68.4z M89.6,59.9c-0.2,0.8-0.4,3.6,0,4.4c-0.5-0.1-1.1-1-2.2-1c-4,0-4.2,6-2.7,7.8
			c1,1.4,2.8,1.6,4.1,0.8c0.5-0.3,0.7-0.6,1.1-0.8v1c0.5,0.1,2,0.5,2-0.4V60.4C91.9,59.5,89.8,59.8,89.6,59.9z"/>
		<polygon fill="#2F3C46" points="210.4,68 274,68 274,67.2 210.4,67.2 		"/>
		<polygon fill="#2F3C46" points="7,68 70.5,68 70.5,67.2 7,67.2 		"/>
		<path fill="#2F3C46" d="M138.8,67.9c0-3.5,3.8-3.7,3.8,0.2C142.5,71.2,138.8,71.8,138.8,67.9z M136.3,67.9c0,6,6.3,5,7.6,3.2
			c1.8-2.4,1.7-7.7-3.2-7.7C138,63.4,136.3,65.2,136.3,67.9z"/>
		<path fill="#2F3C46" d="M123.1,64.6c0-0.4,0.1-0.7-0.1-0.9c-0.4-0.5-1.7-0.1-1.9-0.1c-0.4,1.4-0.2,6.6-0.2,8.4
			c0.8,0.4,0.8,0.3,1.9,0.3c0.7,0,0.5-0.9,0.5-1.7c0-2.7-0.5-5.1,2-5.1c1.2,0,1,2.5,1,3.1c0,4.2-0.4,3.7,1.8,3.7
			c0.4,0,0.6-0.2,0.6-0.6c0-3.4,0.8-8.3-3-8.3c-0.5,0-1.2,0.2-1.5,0.4C123.9,64.1,123.5,64.4,123.1,64.6z"/>
		<path fill="#2F3C46" d="M193.1,63.9c0.2,0.7,0.5,1.4,0.7,2.1l1.9,5.1c0.2,0.7,0.1,0.6,0.6,1c-0.2,0.5-0.5,1.2-0.7,1.8
			c-0.5,1.2-0.7,1.5,0.2,1.5h1.7c0.7-1.1,1.6-4.2,2.1-5.5c0.4-1.3,1.9-5,1.9-6c-0.5-0.3-0.7-0.3-1.4-0.3s-0.8,0.4-1,0.9
			c-0.2,0.6-0.4,1.1-0.5,1.6l-1,3.2l-1.7-4.7c-0.4-0.9-0.4-1.1-1.4-1.1C193.7,63.5,193.5,63.7,193.1,63.9z"/>
		<path fill="#2F3C46" d="M96,66.6c0-0.4,0.2-0.9,0.5-1.1c0.4-0.4,2.7-1.2,2.7,1.5H96V66.6z M93.5,67.4v1.1c0,3.8,3.5,4.3,6.4,3.5
			c1.4-0.4,1.2-1,1-1.9c-1.4,0-5,1.8-5-1.7c0.8,0.4,4.3,0.2,5.3,0c0.4-1.8,0.2-0.1,0.1-1.9C101,62,93.5,62.4,93.5,67.4z"/>
		<path fill="#2F3C46" d="M164.3,65.1c1.5,0,1.6,1.1,1.6,1.9h-3.1C162.7,66,163.1,65.1,164.3,65.1z M160.3,67.4
			c0,1.5-0.1,2.8,1.1,3.9c1.2,1.2,3.8,1.3,5.3,0.8c1.1-0.4,1.1-0.5,1.1-1.6c0-0.9-0.8,0-3.5,0c-1.2,0-1.6-1.1-1.6-2.1
			c0.6,0.3,4.8,0.2,5.3-0.1c0.4-0.3,0.4-0.9,0.2-1.4c-0.2-1.5-0.1-1.7-1.1-2.6c-0.4-0.4-0.5-0.5-1.1-0.7
			C163.1,62.7,160.3,64.5,160.3,67.4z"/>
		<path fill="#2F3C46" d="M106.4,68.6h1.3v1c0,1-1.5,1.1-2.2,1.1c-0.4-0.5-0.7-0.7-0.4-1.4C105.2,68.8,105.7,68.6,106.4,68.6z
			 M103,65.1c0,0.4,0.3,0.8,0.4,1c1.1-0.2,4.3-2.4,4.3,1c-1.7,0-3.5,0.1-4.6,1.3c-0.8,0.9-0.5,2.7,0.2,3.4c0.9,0.8,2.7,1,3.8,0.4
			c0.5-0.2,0.5-0.4,0.9-0.6c0,0.5,0.1,0.5,0.2,0.8c1.1,0,1.7,0.2,1.7-0.4V66c0-2.8-3.5-3.1-5.5-2.3C103.8,64,103,64.1,103,65.1z"/>
		<path fill="#2F3C46" d="M173,70.7h-0.8c-0.5-0.6-0.4-0.4-0.4-1.6c1.1-0.7,0.7-0.5,2.7-0.5v1C174.4,70,173.6,70.7,173,70.7z
			 M169.7,65.1c0,0.4,0.3,0.8,0.4,1c0.7-0.2,4.3-2.2,4.3,0.5V67c-2.4,0-6.1,0.5-4.9,3.8c0.6,1.7,3,1.9,4.3,1.3
			c0.6-0.3,0.4-0.5,1-0.6c-0.5,1,0.7,0.8,1.4,0.8c0.4,0,0.4-0.1,0.4-0.4V66c0-3.7-6.1-2.9-6.7-1.5C169.9,64.5,169.7,65,169.7,65.1z"
			/>
		<path fill="#2F3C46" d="M291.2,9.9h-2.4V6.8c1.8,0,4.3-0.4,4.3,1.5C293,9.4,292.2,9.9,291.2,9.9z M287,5.8v8.9h1.7v-3.4h1.8
			l2.1,3.4h1.7l-1.6-2.6c-0.2-0.4-0.4-0.5-0.5-0.9c3-0.7,2.8-4.2,1-5.3c-1.4-0.8-4-0.6-5.8-0.6C287.2,5.4,287,5.5,287,5.8z"/>
		<path fill="#2F3C46" d="M188.2,61.7v1.9c-1.4,0-1.3-0.2-1.3,1.4c0,0.5,0.4,0.4,1.3,0.4c0,5-0.7,7.8,4.3,6.6
			c0.2-0.9,0.2-0.7,0.2-1.8c-1.3,0-0.4,0.4-1.9,0c-0.3-1.3-0.1-3.4-0.1-4.8c2.3,0,2,0.2,2-1.4c0-0.6-0.6-0.4-2-0.4
			c0-2.4,0.2-2.1-1.7-2.1C188.7,61.5,188.3,61.6,188.2,61.7z"/>
		<path fill="#2F3C46" d="M131.1,61.9v1.7c-1.5,0-1.3-0.2-1.3,1.4c0,0.5,0.4,0.4,1.3,0.4c0,3.9-0.7,6.9,2.7,6.9
			c1.2,0,1.2-0.2,1.7-0.5c0-2.4-0.1-1.1-1.8-1.6c-0.4-1.9-0.3-2.2-0.3-4.4c0-0.7,1.4-0.4,2-0.4c0.5-2.4-0.1-1.9-2-1.9
			c0-2.5,0.4-2.1-1.8-2.1C131.2,61.5,131.1,61.6,131.1,61.9z"/>
		<path fill="#2F3C46" d="M178.8,60.4v11.3c0,0.8,2.4,0.8,2.4,0V60.4C181.3,59.5,178.8,59.5,178.8,60.4z"/>
		<path fill="#2F3C46" d="M116.3,61.1V72c0.8,0.4,1.5,0.4,2.4,0.1V61.2c-0.1-0.5,0.1-0.4-0.3-0.5C118,60.5,116.3,60.4,116.3,61.1z"
			/>
		<path fill="#2F3C46" d="M79.5,72.1c0.5,0.1,2.4,0.5,2.4-0.4V61.1c0-0.4-0.1-0.4-0.4-0.4c-0.5-0.1-1.9-0.2-1.9,0.4V72.1z"/>
		<path fill="#2F3C46" d="M183.4,63.8v8.3c0.9,0.2,1.4,0.2,2.2,0v-8.3C184.9,63.4,184.1,63.4,183.4,63.8z"/>
		<path fill="#2F3C46" d="M183.3,60.5c0,1.5-0.2,2,1.5,2c0.8,0,1.1-0.6,1.1-1.1c0-0.7-0.3-0.9-0.5-1.3C184,60.1,184,59.9,183.3,60.5
			z"/>
	</g>
</g>
</svg>
